<svg xmlns="http://www.w3.org/2000/svg" viewBox="0 0 250.66 37"><title>Risorsa 2Logo</title><g id="Livello_2" data-name="Livello 2"><g id="Livello_1-2" data-name="Livello 1"><path d="M16,15v12.9h-.2a4.52,4.52,0,0,1-4-2.41l-.24.21a7.76,7.76,0,0,1-5.43,2.06,5.83,5.83,0,0,1-6.14-6c0-3.88,3.05-6,7.84-6.14l3.33-.12V15c0-2.26-1.58-3.17-3.56-3.17a9.2,9.2,0,0,0-4.83,1.39l-1.54-3A12.32,12.32,0,0,1,8.56,8.2C13.19,8.2,16,10.1,16,15Zm-4.83,3.76-2.69.08c-2.57.08-3.72.95-3.72,2.54S5.82,24,7.8,24a5,5,0,0,0,3.37-1.19Z" style="fill:#7d868c;fill-rule:evenodd"/><path d="M78.21,27.89h.22A4.54,4.54,0,0,0,83,23.35V23h0V8.64H78.21V27.89ZM80.59,5.75a2.93,2.93,0,0,0,3-2.89,3,3,0,0,0-5.9,0A2.89,2.89,0,0,0,80.59,5.75Z" style="fill:#7d868c;fill-rule:evenodd"/><path d="M92.74,27.77A13,13,0,0,1,85.81,26l1.54-3.49a9.11,9.11,0,0,0,5,1.66c1.94,0,3.21-.71,3.21-2,0-3.37-8.63-2.1-8.63-8.48C87,10.5,89.53,8.2,94,8.2a14.21,14.21,0,0,1,5.51.95v4a14.29,14.29,0,0,0-5.31-1.23c-1.66,0-2.65.52-2.65,1.63,0,3,8.79,2,8.79,8.44C100.39,26.14,96.7,27.77,92.74,27.77Z" style="fill:#7d868c;fill-rule:evenodd"/><path d="M170.58,11.77a3.88,3.88,0,0,0-3.69,4.12h7.29c-.08-2-1.19-4.12-3.6-4.12ZM167,19.25A5,5,0,0,0,172.28,24a9.78,9.78,0,0,0,4.87-1.31l1.15,3a12,12,0,0,1-6.82,2.06c-6.53,0-9.31-4.75-9.31-9.78,0-5.35,3.17-9.78,8.52-9.78,5.07,0,8.4,3.84,8.4,9.66v1.39Z" style="fill:#7d868c;fill-rule:evenodd"/><path d="M203.43,11.77a3.88,3.88,0,0,0-3.69,4.12H207c-.08-2-1.19-4.12-3.6-4.12Zm-3.57,7.49A5,5,0,0,0,205.13,24,9.78,9.78,0,0,0,210,22.66l1.15,3a12,12,0,0,1-6.81,2.06C197.81,27.77,195,23,195,18c0-5.35,3.17-9.78,8.52-9.78,5.07,0,8.4,3.84,8.4,9.66v1.39Z" style="fill:#7d868c;fill-rule:evenodd"/><path d="M159,8.2c-1.78,0-3,.6-5,2.31V8.64h-4.75V27.89h.21A4.56,4.56,0,0,0,154,23.76V14.1a5.48,5.48,0,0,1,3.6-1.66,4.36,4.36,0,0,1,2.22.59l1.74-4A4.62,4.62,0,0,0,159,8.2Z" style="fill:#7d868c;fill-rule:evenodd"/><path d="M110.29,12.79h.26a4.29,4.29,0,0,0,4.54-4V8.64h-4.8V2.89l-4.75,1.43V8.64H102.1v4.16h3.43v7.47c0,.16,0,3.41,1.72,5.24s3.68,2.57,7.35,2.18V23c-2,.22-3.1,0-3.76-.7a2.52,2.52,0,0,1-.55-1.51Z" style="fill:#7d868c;fill-rule:evenodd"/><path d="M188.61,12.79h.26a4.29,4.29,0,0,0,4.54-4V8.64h-4.8V2.89l-4.75,1.43V8.64h-3.43v4.16h3.43v7.47c0,.16,0,3.41,1.72,5.24s3.68,2.57,7.35,2.18V23c-2,.22-3.1,0-3.76-.7a2.53,2.53,0,0,1-.55-1.51Z" style="fill:#7d868c;fill-rule:evenodd"/><path d="M27.89,27.77c-6.1,0-9.23-4.4-9.23-9.67a9.52,9.52,0,0,1,9.7-9.9,10,10,0,0,1,5.35,1.3l-.08,3.88a7.41,7.41,0,0,0-4.71-1.55c-3.21,0-5.51,2.54-5.51,6,0,3.21,1.74,6.06,5.47,6.06a8.47,8.47,0,0,0,4.44-1.31l1.19,3.13A12.46,12.46,0,0,1,27.89,27.77Z" style="fill:#7d868c;fill-rule:evenodd"/><path d="M49.11,22.7a6.61,6.61,0,0,1-3.33,1.07c-2.65,0-4.83-2-4.83-5.82A5.62,5.62,0,0,1,46.73,12a8.63,8.63,0,0,1,2.38.32V22.7ZM47.29,8.2c-6.22,0-11.13,3.8-11.13,10.22s4.32,9.35,8.24,9.35a9.08,9.08,0,0,0,4.72-1.31v6A4.54,4.54,0,0,0,53.65,37h.22V9.51A17.34,17.34,0,0,0,47.29,8.2Z" style="fill:#7d868c;fill-rule:evenodd"/><path d="M73.88,8.64H69.12V22.46A5.53,5.53,0,0,1,65.52,24c-2.3,0-3.37-1.46-3.37-3.8V8.64H57.4V20.48c0,6,3.88,7.29,6.34,7.29a8.49,8.49,0,0,0,5.74-2.26h.21a4.52,4.52,0,0,0,4,2.37h.19v-4.7c0-.31,0-.65,0-1Z" style="fill:#7d868c;fill-rule:evenodd"/><path d="M250.66,15v12.9h-.2a4.52,4.52,0,0,1-4-2.41l-.24.21a7.76,7.76,0,0,1-5.43,2.06,5.83,5.83,0,0,1-6.14-6c0-3.88,3.05-6,7.84-6.14l3.33-.12V15c0-2.26-1.58-3.17-3.56-3.17a9.21,9.21,0,0,0-4.83,1.39l-1.54-3a12.33,12.33,0,0,1,7.33-2.06c4.63,0,7.45,1.9,7.45,6.81Zm-4.83,3.76-2.69.08c-2.58.08-3.73.95-3.73,2.54S240.48,24,242.46,24a5,5,0,0,0,3.37-1.19Z" style="fill:#821b4c;fill-rule:evenodd"/><path d="M118.72,27.89h.22a4.54,4.54,0,0,0,4.53-4.53V23h0V8.64h-4.75V27.89ZM121.1,5.75a2.93,2.93,0,0,0,3-2.89,3,3,0,0,0-5.9,0A2.89,2.89,0,0,0,121.1,5.75Z" style="fill:#821b4c;fill-rule:evenodd"/><path d="M139.35,8.2A10.08,10.08,0,0,0,133,10.66v-2h-4.75V27.89h.22A4.54,4.54,0,0,0,133,23.37h0V14.26a8.23,8.23,0,0,1,4.75-2c2.42,0,2.77,2.14,2.77,4.08V27.89h.22a4.54,4.54,0,0,0,4.53-4.46h0v-8.5C145.25,9.9,142.2,8.2,139.35,8.2Z" style="fill:#821b4c;fill-rule:evenodd"/><path d="M222.34,24a6.8,6.8,0,0,1-2.46-.47V12.4a8.33,8.33,0,0,1,2.18-.28c3.09,0,5.51,1.86,5.51,5.82,0,3.65-1.9,6.06-5.23,6.06Zm.08-15.8a21.36,21.36,0,0,0-7.29,1.27V37h.22a4.54,4.54,0,0,0,4.53-4.54v-.08h0v-5a8.53,8.53,0,0,0,2.69.44,9.67,9.67,0,0,0,9.94-10.06C232.52,11.88,229.07,8.2,222.41,8.2Z" style="fill:#821b4c;fill-rule:evenodd"/></g></g></svg>